<svg xmlns="http://www.w3.org/2000/svg" viewBox="0 0 640 1096" enable-background="new 0 0 640 1096"><path fill="#fff" d="M530.8 325.5c4.9-15.9 11.5-51.2-6.6-96.5 0 0-31.9-10.1-104.1 38.2-28.2-7.1-58.4-10.6-88.6-10.6-33.1 0-66.8 4.2-98 12.8-74.6-50.9-107.6-40.4-107.6-40.4-21.5 53.8-8.2 93.5-4.1 103.4-25.2 27.2-40.6 62-40.6 104.6 0 32.2 3.6 61.1 12.6 86.1l9.4 21.4c25.1 46.9 74.7 77.2 163 86.8-12.5 8.4-25.2 22.8-30.5 47-17.1 8.1-71.1 28.1-103.5-27.6 0 0-18.1-33.2-52.9-35.8 0 0-33.8-.5-2.4 21 0 0 22.5 10.6 38.1 50.5 0 0 20.2 68.1 118.2 46.2v70.4s-2.1 24.9-24.9 33.1c0 0-13.5 9.4 1 14.5 0 0 63.2 5.1 63.2-46.6v-76.8s-2.5-30.4 12.5-41v126s-1 30.1-16.6 41.5c0 0-10.4 18.6 12.4 13.5 0 0 43.5-6.2 45.6-57l1-127.5h10.6l1 127.5c2.1 50.8 45.6 57 45.6 57 22.8 5.1 12.4-13.5 12.4-13.5-15.5-11.4-16.6-41.5-16.6-41.5v-124.8c14.9 11.6 12.4 39.9 12.4 39.9v76.7c0 51.9 63.3 46.6 63.3 46.6 14.5-5.1 1-14.5 1-14.5-22.8-8.2-24.9-33.1-24.9-33.1v-100.5c0-39.2-16.5-60-32.6-71 94.1-9.4 139.2-39.7 160.1-87l7.4-21.1c7-25.1 9.1-54.1 9.1-86.4.2-46.4-17.2-83.4-45.4-111.5zm-200.2 288.3c-102.6 0-185.8-15.5-185.8-114.6 0-23.8 11.8-45.7 31.7-64.1 33.4-30.5 89.9-14.4 154.1-14.4 63.9 0 120.1-16.4 153.6 14 20.2 18.4 32.1 40.5 32.1 64.5.2 111.6-83.1 114.6-185.7 114.6z" opacity=".3"/></svg>