<svg xmlns="http://www.w3.org/2000/svg" viewBox="0 0 110 110" enable-background="new 0 0 110 110"><g opacity=".5" fill="#fff"><path d="M57.9 3v4c26.5 0 48 21.5 48 48 0 25.1-19.4 45.8-44 47.8v-10.7c18.7-2 33.3-17.9 33.3-37.1 0-20.6-16.7-37.3-37.3-37.3v18.7c10.2 0 18.6 8.3 18.6 18.6 0 10.2-8.3 18.6-18.6 18.6v4c12.5 0 22.6-10.1 22.6-22.6 0-11.1-8-20.3-18.6-22.2v-10.8c16.5 2 29.3 16 29.3 33 0 18.4-14.9 33.3-33.3 33.3v18.7c28.7 0 52-23.3 52-52s-23.3-52-52-52zM.1 55c0 28.7 23.3 52 52 52v-4c-26.5 0-48-21.5-48-48 0-25.1 19.4-45.8 44-47.8v10.7c-18.7 2-33.3 17.9-33.3 37.1 0 20.6 16.7 37.3 37.3 37.3v-18.700000000000003c-10.2 0-18.6-8.3-18.6-18.6 0-10.2 8.3-18.6 18.6-18.6v-4c-12.5 0-22.6 10.1-22.6 22.6 0 11.1 8 20.3 18.6 22.2v10.8c-16.5-2-29.3-16-29.3-33 0-18.4 14.9-33.3 33.3-33.3v-18.7c-28.7 0-52 23.3-52 52z"/></g></svg>