<svg xmlns="http://www.w3.org/2000/svg" width="340" height="320" viewBox="-262 72 340 320" enable-background="new -262 72 340 320"><style type="text/css">.st0{fill:#7F7F7F;} .st1{fill:none;stroke:#D6D6D6;stroke-miterlimit:10;} .st2{fill:#2874DC;} .st3{fill:none;stroke:#2164BF;stroke-miterlimit:10;}</style><path class="st0" d="M-101.5 90.8v-18.8c-88.6 0-160.5 71.6-160.5 160s71.9 160 160.5 160v-18.8c-6.3 0-12.6-.4-18.8-1.3-70.2-9.4-122.7-69.3-122.7-139.9s52.5-130.5 122.7-139.9v19c-59.8 9.2-103.9 60.6-103.9 120.9s44.1 111.6 103.9 120.9c6.3 1 12.5 1.4 18.8 1.4v-56.400000000000006c-36.5 0-66.1-29.5-66.1-65.9s29.6-65.9 66.1-65.9v-18.8c-6.4 0-12.6.7-18.8 2.2-38.7 8.8-66.1 43.1-66.1 82.6s27.4 73.8 66.1 82.6v19.2c-49.2-9.1-84.9-51.9-84.9-101.8s35.7-92.7 84.9-101.8c6.3-1.2 12.5-1.7 18.8-1.7v-37.8z"/><path class="st1" d="M-101.5 90.8v-18.8c-88.6 0-160.5 71.6-160.5 160s71.9 160 160.5 160v-18.8c-6.3 0-12.6-.4-18.8-1.3-70.2-9.4-122.7-69.3-122.7-139.9s52.5-130.5 122.7-139.9v19c-59.8 9.2-103.9 60.6-103.9 120.9s44.1 111.6 103.9 120.9c6.3 1 12.5 1.4 18.8 1.4v-56.400000000000006c-36.5 0-66.1-29.5-66.1-65.9s29.6-65.9 66.1-65.9v-18.8c-6.4 0-12.6.7-18.8 2.2-38.7 8.8-66.1 43.1-66.1 82.6s27.4 73.8 66.1 82.6v19.2c-49.2-9.1-84.9-51.9-84.9-101.8s35.7-92.7 84.9-101.8c6.3-1.2 12.5-1.7 18.8-1.7v-37.8z"/><path class="st2" d="M-82.5 373.2v18.8c88.6 0 160.5-71.6 160.5-160s-71.9-160-160.5-160v18.8c6.3 0 12.6.4 18.8 1.3 70.3 9.4 122.8 69.2 122.8 139.9s-52.5 130.5-122.8 139.9v-19c59.8-9.2 103.9-60.5 103.9-120.9s-44.1-111.6-103.9-120.9c-6.3-1-12.5-1.4-18.8-1.4v56.400000000000006c36.5 0 66.1 29.5 66.1 65.9s-29.6 65.9-66.1 65.9v18.8c6.4 0 12.6-.7 18.8-2.2 38.7-8.8 66.1-43.1 66.1-82.6s-27.4-73.9-66.1-82.7v-19.2c49.2 9.1 84.9 51.9 84.9 101.8s-35.7 92.7-84.9 101.8c-6.3 1.2-12.5 1.7-18.8 1.7v37.900000000000006z"/><path class="st3" d="M-82.5 373.2v18.8c88.6 0 160.5-71.6 160.5-160s-71.9-160-160.5-160v18.8c6.3 0 12.6.4 18.8 1.3 70.3 9.4 122.8 69.2 122.8 139.9s-52.5 130.5-122.8 139.9v-19c59.8-9.2 103.9-60.5 103.9-120.9s-44.1-111.6-103.9-120.9c-6.3-1-12.5-1.4-18.8-1.4v56.400000000000006c36.5 0 66.1 29.5 66.1 65.9s-29.6 65.9-66.1 65.9v18.8c6.4 0 12.6-.7 18.8-2.2 38.7-8.8 66.1-43.1 66.1-82.6s-27.4-73.9-66.1-82.7v-19.2c49.2 9.1 84.9 51.9 84.9 101.8s-35.7 92.7-84.9 101.8c-6.3 1.2-12.5 1.7-18.8 1.7v37.900000000000006z"/></svg>