<svg xmlns="http://www.w3.org/2000/svg" viewBox="0 0 100 100" enable-background="new 0 0 100 100"><path fill="#fff" d="M91.929 0c2.254 0 4.165.741 5.728 2.214 1.562 1.478 2.344 3.346 2.344 5.599v83.594c0 2.256-.781 4.255-2.344 5.99-1.562 1.737-3.474 2.603-5.728 2.603h-83.335c-2.259 0-4.257-.866-5.99-2.603-1.737-1.735-2.604-3.734-2.604-5.99v-83.594c0-2.254.822-4.122 2.475-5.599 1.647-1.473 3.686-2.214 6.12-2.214h83.335zm-73.178 29.818c1.388 1.478 3.209 2.214 5.468 2.214 2.255 0 4.122-.736 5.599-2.214 1.472-1.472 2.214-3.254 2.214-5.338 0-2.254-.696-4.122-2.084-5.599-1.391-1.472-3.215-2.214-5.468-2.214-2.259 0-4.127.741-5.599 2.214-1.478 1.478-2.214 3.346-2.214 5.599 0 2.084.691 3.866 2.084 5.338zm12.239 53.515v-44.53h-14.323v44.531h14.323zm52.343 0v-26.043c0-6.419-1.521-11.283-4.556-14.583-3.04-3.294-6.992-4.947-11.849-4.947-5.209 0-9.551 2.433-13.023 7.29v-6.248h-14.323v44.531h14.323v-25.26c0-1.734.172-2.953.522-3.646 1.388-3.472 3.816-5.209 7.293-5.209 4.857 0 7.29 3.215 7.29 9.636v24.478h14.323z" opacity=".3"/></svg>