<svg xmlns="http://www.w3.org/2000/svg" viewBox="0 0 100 66.8" enable-background="new 0 0 100 66.8"><g fill="#fff"><path d="M18.5 38.5c.1-.7.1-1.1.2-1.6.3-1.6.6-3.3 1.1-4.9.4-1.3 1.1-2.4 1.4-3.7.4-1.6 1.6-.9 2.5-1 .5-.1 1.2 0 1.6.2.5.4 1 1 1.2 1.6.5 1.8.9 3.7 1.3 5.5.4 1.8.7 3.6 1.2 5.4.4 1.7.9 3.4 1.4 5.1.1.5.3.9.4 1.5l-.3-.2c-.6.2-.9.4-1.3.5-.5.1-1 .2-1.6.3-.7.2-.8-.4-.9-.8l-1.2-3.4c-.5-1.5-.9-2.9-1.3-4.4l-.8-3.1c0-.1-.1-.1-.3-.3-.1 1.1-.1 2-.2 3-.1 1.9-.1 3.7-.3 5.6-.2 1.9-.2 1.7-1.9 1.9l-1.8.2c-1 .1-1.3-.6-1.7-1.3-.9-1.4-1.7-2.8-2.7-4.4.1.8.2 1.5.3 2.1l.3 2c.1.9-.7 1-1.2 1.3-.5.2-1.1.3-1.6.4-1.1.2-1.7-.4-1.9-1.7-.2-1.8-.5-3.5-.5-5.3-.1-2 0-4 .1-6 0-.4.1-.8 0-1.1-.2-1.2.7-1.1 1.3-1.3.7-.2 1.4-.2 2.1-.2 1.5 0 1.6 1.3 2.1 2.2 1 2.1 1.9 3.9 3 5.9zM81.2 46.1c-.2 2.9-.1 6 1.1 9h-3.4s-.4-.2-.5-.4c-.4-1.8-.7-3.7-1-5.5-.2-1.2-.2-2.4-.3-3.6-.6-.4-1.4-.8-1.1-1.7.1-.3.5-.5.8-.8.1-.1.4-.2.4-.3.4-2.2.6-4.4 1.1-6.5.5-2.1 1.3-4.1 3.1-5.5.6-.5 1.2-.9 1.8-1.3.9-.6 1.8-.4 2.7 0 .9.4 1.8.7 2.7 1 1 .5 1.3 1.5 1.5 2.4.5 1.8.3 3.7-.3 5.4-.4 1-1 2.1-1.7 2.8-1.4 1.4-2.8 2.7-4.4 3.9-.6.5-1.5.7-2.5 1.1zm4.6-14.1c-.5.6-1.1 1-1.5 1.5-1.9 2.6-2.3 5.6-2.9 8.7 2.6-1.4 5.9-4.7 4.4-10.2zM34.6 39.7c-.3 2.1-.2 4.3 1.9 5.7.3.2.8.1 1.1 0 .6-.1 1.1-.4 1.7-.6.4-.1.8-.1 1.1 0 .8.3 1.6.6 2.3.9v.4c-.8.3-1.6.7-2.4.8-1.7.3-3.4.8-5.1.3-1-.3-2-.9-3-1.5-2-1.1-2.1-3-2.1-5 0-1-.1-2.1 0-3.1s.1-1.9.4-2.9c.6-2.2 2-3.8 3.8-5.2 1.4-1 2.5-.5 3.8-.2.7.2 1.6.2 1.8 1.2.2.8.3 1.7.4 2.6.1 1.3.3 2.6.2 3.9 0 .9-.2 1.9-.5 2.8.2.2-.6.2-1 .2l-3.8-.4c-.2-.1-.4 0-.6.1zm1.8-6.4h-.4c-.4 1.3-.8 2.5-1.3 3.9.7.1 1.1.2 1.6.2.1-1.5.1-2.8.1-4.1zM51.2 40.1c-1.8 1.1-3.6.5-5.5.2-.5 1.7.3 2.9 1.2 4.1.7.9 2.2 1 3 .7.8-.3 1.5-.3 2-1.2.1-.1.6-.1.9 0 .6.2 1.3.6 1.2 1.4 0 .2-.4.5-.6.6-1.3.4-2.6 1.1-3.9 1-1.9-.1-4.1-.1-5.5-1.6-1.4-1.4-2.2-3.1-2.1-5.4.1-1.9.6-3.7 1.1-5.5.5-1.9 1.4-3.7 3.1-5l.9-1c.6-.7 1.3-.5 2-.3.9.3 1.9.5 2.6 1.1.4.3.6 1.2.6 1.8 0 1.1-.1 2.1-.2 3.2l-.2.9c-.2 1.1-.3 2.3-.4 3.4-.4.6-.3 1.1-.2 1.6zm-3.1-7.1c-.3.2-.4.3-.4.4-.5 1.4-1 2.8-1.4 4.3 0 .2.2.6.3.6.5-.1 1.3.6 1.4-.3 0-1.6 0-3.2.1-5zM60.1 39.5v7.9c-.7.1-1.5.3-2.3.3-.2 0-.5-.4-.5-.6-.2-2.2-.4-4.4-.4-6.7 0-1.2-.7-.8-1.3-.9-.6-.1-1.2.1-1.8-.1-.3-.1-.7-.6-.8-1-.1-.7.3-1.3 1.1-1.3.7 0 1.4.1 2.1 0 .1 0 .4-.3.4-.4l-.6-5.3c-.2-2-.4-4.1-.4-6.1 0-1.1.1-2.2.4-3.3.2-.7 1.2-.9 2-.5l1.6.9c1 .6.5 1.6.5 2.4v5.8c0 1.5.2 3.1.3 4.6 0 .5-.2 1-.5 1.9.5-.2.8-.3.8-.4.2-1.3.5-1.4 1.6-.6.8.6 1.4 1.4 2.1 2.1.1.1.1.3.2.6-1.6.3-3.1.5-4.5.7zM69.8 44.7c1.8-1.7 2.8-3.7 2.8-6.1 0-1-.2-2-.2-2.9 0-.4.2-.9.5-1.1.2-.2.8-.2 1.1-.1.8.3 1.7.7 2.4 1.2.3.2.5.7.5 1.1-.1 1.6-.1 3.2-1 4.6-.5.8-1.1 1.6-1.6 2.3-.6.8-1.1 1.6-1.8 2.2-.3.3-.8.6-1.3.6-.9.2-1.9.3-2.9.2-1.4 0-2-1.1-2.2-2.2-.5-2.1-.8-4.3-1.1-6.5l-.3-3c-.1-.8.7-1.4 1.6-1 .8.3 1.7.6 2.3 1.2.4.4.4 1.3.5 2 .1 1.4.2 2.7.2 4.1l.2 2.7c.2.2.3.4.3.7z"/></g><path fill="#fff" d="M0 6c0-3.3 2.7-6 6-6h88c3.3 0 6 2.7 6 6v54.8c0 3.3-2.7 6-6 6h-88c-3.3 0-6-2.7-6-6v-54.8zm99 11.8h-98v40h98v-40z"/></svg>