<svg xmlns="http://www.w3.org/2000/svg" viewBox="0 0 100 200" enable-background="new 0 0 100 200"><path fill="#E6E6E6" d="M-350 200c-11.4-22.8-22.8-45.6-34.2-68.3-10.8-21.7-15.8-42.9-15.8-67.1v-14.6c0-27.6 22.4-50 50-50s50 22.4 50 50v14.6c0 24.2-5 45.4-15.8 67.1-11.4 22.7-22.8 45.5-34.2 68.3zm33.3-92.7c4.5-14 6.7-27.9 6.7-42.7v-14.6c0-22.1-17.9-40-40-40s-40 17.9-40 40v14.6c0 14.7 2.2 28.6 6.7 42.7 10.4 32.4 56.2 32.4 66.6 0z"/><path fill="#E6E6E6" d="M-150 200c-11.4-22.8-22.8-45.6-34.2-68.3-10.8-21.7-15.8-42.9-15.8-67.1v-64.6h100v64.6c0 24.2-5 45.4-15.8 67.1-11.4 22.7-22.8 45.5-34.2 68.3zm33.3-92.7c4.5-14 6.7-27.9 6.7-42.7v-54.6h-80v54.6c0 14.7 2.2 28.6 6.7 42.7 10.4 32.4 56.2 32.4 66.6 0z"/><path fill="#E6E6E6" d="M100 76.4c0 16.1-3.3 30.3-10.6 44.7l-39.4 78.9-39.4-78.9c-7.3-14.4-10.6-28.6-10.6-44.7v-5.7c0-13.3 5.3-26 14.6-35.4 11.8-11.7 23.6-23.5 35.4-35.3l35.4 35.4c9.4 9.4 14.6 22.1 14.6 35.4v5.6zm-18.2 37.5c5.6-12.2 8.2-24.1 8.2-37.5v-5.7c0-10.6-4.2-20.8-11.7-28.3-9.4-9.4-18.9-18.8-28.3-28.3-9.4 9.5-18.9 18.9-28.3 28.3-7.5 7.5-11.7 17.7-11.7 28.3v5.7c0 13.4 2.6 25.3 8.2 37.5 12.5 27.2 51.1 27.2 63.6 0z"/><path fill="#E6E6E6" d="M210.5 119.6c1.6 4.1 3.4 8.1 5.4 12.1 11.4 22.8 22.8 45.6 34.2 68.3 11.4-22.8 22.8-45.6 34.2-68.3 2-3.9 3.8-8 5.4-12.1-14.1 6.4-23 12-39.5 12-16.7 0-25.7-5.6-39.7-12z"/><path fill="#E6E6E6" d="M252.8 83.3v11.2c26.1 0 47.2-21.1 47.2-47.2 0-26.2-21.1-47.3-47.2-47.3v5.6c1.9 0 3.7.1 5.6.4 20.7 2.8 36.1 20.4 36.1 41.3s-15.5 38.4-36.2 41.2v-5.6c17.6-2.7 30.6-17.9 30.6-35.7 0-17.8-13-32.9-30.6-35.7-1.8-.3-3.7-.4-5.6-.4v16.799999999999997c10.7 0 19.4 8.7 19.4 19.4s-8.7 19.4-19.4 19.4v5.6c1.9 0 3.7-.2 5.6-.6 11.4-2.6 19.4-12.7 19.4-24.4s-8.1-21.8-19.4-24.4v-5.7c14.5 2.7 25 15.3 25 30s-10.5 27.4-25 30c-1.8.3-3.7.5-5.6.5.1 1.9.1 3.8.1 5.6z"/><path fill="#E6E6E6" d="M247.2 11.1v-11.2c-26.1.1-47.2 21.2-47.2 47.3 0 26.1 21.1 47.2 47.2 47.2v-5.6c-1.9 0-3.7-.1-5.6-.4-20.7-2.8-36.1-20.4-36.1-41.3s15.5-38.4 36.2-41.2v5.6c-17.6 2.7-30.6 17.9-30.6 35.7 0 17.8 13 32.9 30.6 35.7 1.8.3 3.7.4 5.6.4v-16.799999999999997c-10.7 0-19.4-8.7-19.4-19.4s8.7-19.4 19.4-19.4v-5.6c-1.9 0-3.7.2-5.6.6-11.4 2.6-19.4 12.7-19.4 24.4s8.1 21.8 19.4 24.4v5.7c-14.5-2.7-25-15.3-25-30s10.5-27.4 25-30c1.8-.3 3.7-.5 5.6-.5-.1-1.9-.1-3.7-.1-5.6z"/></svg>