<svg xmlns="http://www.w3.org/2000/svg" viewBox="0 0 100 200" enable-background="new 0 0 100 200"><path fill="#ccc" d="M53.9 169.8l26.6-53.2c4.4-8.9 7.3-17.9 8.6-27.8-20-25.2-58.2-25.2-78.3 0 1.4 9.8 4.2 18.9 8.6 27.8l26.6 53.2 3.9 7.8c1.4-2.6 2.7-5.2 4-7.8z"/><circle fill="#ccc" cx="50" cy="40" r="20"/><path fill="#E6E6E6" d="M50 200l-39.4-78.9c-7.3-14.4-10.6-28.6-10.6-44.7v-26.4c0-27.6 22.4-50 50-50s50 22.4 50 50v26.4c0 16.1-3.3 30.3-10.6 44.7l-39.4 78.9zm35-81.1c6.9-13.7 10-27.2 10-42.5v-26.4c0-24.9-20.1-45-45-45s-45 20.1-45 45v26.4c0 15.3 3.2 28.8 10 42.5l35 69.9 35-69.9z"/></svg>