<svg xmlns="http://www.w3.org/2000/svg" viewBox="0 0 100 200" enable-background="new 0 0 100 200"><path fill="#ccc" d="M90 50v26.4c0 14.5-3 27.3-9.5 40.2l-.5 1v-5.7l-10-6v31.7l-10 20-10 20-2.2-4.4 2.2-1.4v-29.5c-3.3 2.1-6.7 4.2-10 6.2v9l-10-20v-18.1l-6.9 4.3c-.8-1.5-1.5-3-2.2-4.5l.1-.1 9-5.6v-29.5c-3.3 2.1-6.7 4.2-10 6.2v27.3l-.5-1c-6.5-12.8-9.5-25.6-9.5-40.1v-15.1c16.7-10.5 33.3-20.9 50-31.3l30 18v2zm-10 56.1v-29.1l-10-6v29.2l10 5.9zm0-34.9v-23.4l-10-6v23.3l10 6.1zm-30 65.3v-29.5l-10 6.2v29.5l10-6.2zm0-35.4v-29.5l-10 6.2v29.5l10-6.2zm0-35.4v-23.5l-10 6.2v23.6l10-6.3zm-20 12.5v-23.5l-10 6.2v23.6l10-6.3z"/><path fill="#E6E6E6" d="M50 188.8l-35-69.9c-6.8-13.7-10-27.2-10-42.5v-26.4c0-24.9 20.1-45 45-45s45 20.1 45 45v26.4c0 15.3-3.2 28.8-10 42.5l-35 69.9zm39.4-67.7c7.2-14.4 10.6-28.6 10.6-44.7v-26.4c0-27.6-22.4-50-50-50s-50 22.4-50 50v26.4c0 16.1 3.3 30.3 10.6 44.7l39.4 78.9 39.4-78.9z"/></svg>