<svg xmlns="http://www.w3.org/2000/svg" viewBox="0 0 100 200" enable-background="new 0 0 100 200"><path fill="#ccc" d="M88.1 38c1.2 3.9 1.8 7.8 1.8 11.9-.7-1.2-1.5-2.3-2.3-3.4-1.2-1.6-2.5-3.1-3.9-4.5l4.2-4.2c.1 0 .2.1.2.2z"/><path fill="#ccc" d="M90.9 73.6c0 3-.4 5.9-1.1 9-6.5 26.9-38.2 38.5-60.5 22.2l-4.3 4.3c18.9 14.4 45.7 11.5 61.1-6.5-1.3 4.2-2.9 8.3-4.8 12.4-.3.6-.5 1.1-.8 1.6l-30.5 61-30.5-61c-1.2-2.4-2.3-4.8-3.2-7.2l4.2-4.2 4.2-4.2 4.2-4.2c1.4 1.4 2.9 2.7 4.6 3.8 13 9 30.6 7.3 41.8-3.8 11.2-11.2 12.8-28.8 3.8-41.8l-4.3 4.3c6.7 10.6 5.1 24.4-3.8 33.3-8.8 8.8-22.6 10.4-33.2 3.7-1.7-1.1-3.3-2.3-4.7-3.7l4.2-4.2c8.2 8.1 21.4 8.1 29.5 0 8.1-8.2 8.1-21.4 0-29.5l4.2-4.2 4.2-4.2 4.2-4.2c1.4 1.4 2.7 2.9 3.9 4.5 3.3 4.5 5.4 9.2 6.6 14.7.7 2.8 1 5.5 1 8.1z"/><path fill="#E6E6E6" d="M16.3 101l-2.2 2.2c-.7-2.3-1.3-4.5-1.8-6.8l.1.1c1.1 1.6 2.5 3.1 3.9 4.5z"/><path fill="#E6E6E6" d="M83.7 33.5l-4.2 4.2-4.2 4.2-4.2 4.2c-1.4-1.4-2.9-2.7-4.6-3.8-13-9-30.6-7.3-41.8 3.8-11.2 11.2-12.8 28.7-3.8 41.8l4.3-4.3c-6.7-10.6-5.1-24.4 3.8-33.2 8.8-8.8 22.6-10.4 33.2-3.8 1.7 1.1 3.3 2.3 4.7 3.8l-4.2 4.2c-8.2-8.2-21.4-8.2-29.5 0-8.2 8.2-8.2 21.4-.1 29.5l-4.2 4.2-4.2 4.2-4.2 4.2c-1.4-1.4-2.7-2.9-3.9-4.5-3.3-4.5-5.4-9.2-6.6-14.7-.6-2.8-.9-5.4-.9-8.1 0-2.7.3-5.4.9-8.1 5.9-27.4 38.1-39.7 60.8-23.2l4.3-4.3c-20.8-15.8-50.7-10.6-64.8 11.4.6-5.1 2.1-9.7 4.5-14.2 20.1-17.3 50.2-16.2 68.9 2.5z"/><path fill="#E6E6E6" d="M89.4 121.1c-13.1 26.3-26.2 52.6-39.4 78.9-13.2-26.3-26.3-52.6-39.4-78.9-7.2-14.4-10.6-28.6-10.6-44.7v-26.4c0-27.6 22.4-50 50-50s50 22.4 50 50v26.4c0 16.1-3.3 30.3-10.6 44.7zm5.6-71.1c0-24.9-20.1-45-45-45-23 0-42 17.3-44.6 39.5-.3 1.8-.4 3.7-.4 5.5v26.4c0 15.3 3.2 28.8 10 42.5 11.6 23.3 23.3 46.6 35 69.9 1.5-3 3-6 4.5-8.9l30.5-61c6.9-13.7 10-27.2 10-42.5v-26.400000000000002z"/></svg>