<svg xmlns="http://www.w3.org/2000/svg" viewBox="0 0 100 200" enable-background="new 0 0 100 200"><rect x="25.4" y="75.4" fill="#ccc" width="12.3" height="12.3"/><rect x="43.9" y="75.4" fill="#ccc" width="12.3" height="12.3"/><rect x="62.3" y="75.4" fill="#ccc" width="12.3" height="12.3"/><rect x="62.3" y="57" fill="#ccc" width="12.3" height="12.3"/><rect x="43.9" y="57" fill="#ccc" width="12.3" height="12.3"/><rect x="25.4" y="57" fill="#ccc" width="12.3" height="12.3"/><path fill="#ccc" d="M80.7 50.9h-61.4v43h61.4v-43zm-12.3-4.9c2 0 3.1-.7 3.9-2.5.7-1.6.4-3.2.4-4.9h14.1v61.4c-1.6 5.8-3.7 11.3-6.3 16.6l-30.5 61-30.5-61c-2.7-5.4-4.8-10.9-6.3-16.6v-61.4h14.1c0 1.6-.4 3.2.4 4.9.8 1.8 1.9 2.5 3.9 2.5s3.1-.7 3.9-2.5c.7-1.6.4-3.2.4-4.9h28.3c0 1.6-.4 3.2.4 4.9.7 1.8 1.8 2.5 3.8 2.5z"/><path fill="#ccc" d="M71.5 32.2c.2 3.1 0 6.3 0 9.4 0 4.1-5.8 4.3-6.1.2-.2-3.2 0-6.3 0-9.4 0-4.1 5.8-4.2 6.1-.2z"/><path fill="#ccc" d="M34.6 32.2c.2 3.1 0 6.3 0 9.4 0 4.1-5.8 4.3-6.1.2-.2-3.2 0-6.3 0-9.4 0-4.1 5.9-4.2 6.1-.2z"/><path fill="#E6E6E6" d="M95 50c0-24.9-20.2-45-45-45s-45 20.1-45 45v26.4c0 15.3 3.2 28.8 10 42.5l35 69.9c11.6-23.3 23.3-46.6 35-69.9 6.8-13.7 10-27.2 10-42.5v-26.4zm-5.6 71.1l-39.4 78.9c-13.2-26.3-26.3-52.6-39.4-78.9-7.3-14.4-10.6-28.6-10.6-44.7v-26.4c0-27.6 22.4-50 50-50s50 22.4 50 50v26.4c0 16.1-3.3 30.3-10.6 44.7z"/></svg>