<?xml version="1.0" encoding="utf-8"?>
<!-- Generator: Adobe Illustrator 17.1.0, SVG Export Plug-In . SVG Version: 6.00 Build 0)  -->
<!DOCTYPE svg PUBLIC "-//W3C//DTD SVG 1.1//EN" "http://www.w3.org/Graphics/SVG/1.1/DTD/svg11.dtd">
<svg version="1.1" id="Default_copy" xmlns="http://www.w3.org/2000/svg" xmlns:xlink="http://www.w3.org/1999/xlink" x="0px"
	 y="0px" viewBox="0 0 110 110" enable-background="new 0 0 110 110" xml:space="preserve">
<g opacity="0.5">
	<path fill="#FFFFFF" d="M57.9,3v4c26.5,0,48,21.5,48,48c0,25.1-19.4,45.8-44,47.8V92.1c18.7-2,33.3-17.9,33.3-37.1
		c0-20.6-16.7-37.3-37.3-37.3v1.5v15.3v1.9c10.2,0,18.6,8.3,18.6,18.6c0,10.2-8.3,18.6-18.6,18.6v4c12.5,0,22.6-10.1,22.6-22.6
		c0-11.1-8-20.3-18.6-22.2V22c16.5,2,29.3,16,29.3,33c0,18.4-14.9,33.3-33.3,33.3V90v15.3v1.7c28.7,0,52-23.3,52-52S86.6,3,57.9,3z"
		/>
	<path fill="#FFFFFF" d="M0.1,55c0,28.7,23.3,52,52,52v-4c-26.5,0-48-21.5-48-48c0-25.1,19.4-45.8,44-47.8v10.7
		c-18.7,2-33.3,17.9-33.3,37.1c0,20.6,16.7,37.3,37.3,37.3V90V74.7v-1.1c-10.2,0-18.6-8.3-18.6-18.6c0-10.2,8.3-18.6,18.6-18.6v-4
		c-12.5,0-22.6,10.1-22.6,22.6c0,11.1,8,20.3,18.6,22.2V88c-16.5-2-29.3-16-29.3-33c0-18.4,14.9-33.3,33.3-33.3v-1.4V5V3
		C23.4,3,0.1,26.3,0.1,55z"/>
</g>
</svg>
