<?xml version="1.0" encoding="utf-8"?>
<!-- Generator: Adobe Illustrator 19.1.0, SVG Export Plug-In . SVG Version: 6.00 Build 0)  -->
<!DOCTYPE svg PUBLIC "-//W3C//DTD SVG 1.1//EN" "http://www.w3.org/Graphics/SVG/1.1/DTD/svg11.dtd">
<svg version="1.1" id="Layer_1" xmlns="http://www.w3.org/2000/svg" xmlns:xlink="http://www.w3.org/1999/xlink" x="0px" y="0px"
	 width="340px" height="320px" viewBox="-262 72 340 320" style="enable-background:new -262 72 340 320;" xml:space="preserve">
<style type="text/css">
	.st0{fill:#7F7F7F;}
	.st1{fill:none;stroke:#D6D6D6;stroke-miterlimit:10;}
	.st2{fill:#2874DC;}
	.st3{fill:none;stroke:#2164BF;stroke-miterlimit:10;}
</style>
<g>
	<g>
		<path class="st0" d="M-101.5,90.8c0-6.3,0-12.6,0-18.8C-190.1,72-262,143.6-262,232s71.9,160,160.5,160c0-6.3,0-12.6,0-18.8
			c-6.3,0-12.6-0.4-18.8-1.3c-70.2-9.4-122.7-69.3-122.7-139.9s52.5-130.5,122.7-139.9c0,6.3,0,12.7,0,19
			c-59.8,9.2-103.9,60.6-103.9,120.9s44.1,111.6,103.9,120.9c6.3,1,12.5,1.4,18.8,1.4c0-6.3,0-12.6,0-18.8c0-6.3,0-12.6,0-18.8
			c0-6.3,0-12.6,0-18.8c-36.5,0-66.1-29.5-66.1-65.9s29.6-65.9,66.1-65.9c0-6.3,0-12.6,0-18.8c-6.4,0-12.6,0.7-18.8,2.2
			c-38.7,8.8-66.1,43.1-66.1,82.6s27.4,73.8,66.1,82.6c0,6.4,0,12.8,0,19.2c-49.2-9.1-84.9-51.9-84.9-101.8s35.7-92.7,84.9-101.8
			c6.3-1.2,12.5-1.7,18.8-1.7c0-6.3,0-12.6,0-18.8C-101.5,103.4-101.5,97.1-101.5,90.8z"/>
		<path class="st1" d="M-101.5,90.8c0-6.3,0-12.6,0-18.8C-190.1,72-262,143.6-262,232s71.9,160,160.5,160c0-6.3,0-12.6,0-18.8
			c-6.3,0-12.6-0.4-18.8-1.3c-70.2-9.4-122.7-69.3-122.7-139.9s52.5-130.5,122.7-139.9c0,6.3,0,12.7,0,19
			c-59.8,9.2-103.9,60.6-103.9,120.9s44.1,111.6,103.9,120.9c6.3,1,12.5,1.4,18.8,1.4c0-6.3,0-12.6,0-18.8c0-6.3,0-12.6,0-18.8
			c0-6.3,0-12.6,0-18.8c-36.5,0-66.1-29.5-66.1-65.9s29.6-65.9,66.1-65.9c0-6.3,0-12.6,0-18.8c-6.4,0-12.6,0.7-18.8,2.2
			c-38.7,8.8-66.1,43.1-66.1,82.6s27.4,73.8,66.1,82.6c0,6.4,0,12.8,0,19.2c-49.2-9.1-84.9-51.9-84.9-101.8s35.7-92.7,84.9-101.8
			c6.3-1.2,12.5-1.7,18.8-1.7c0-6.3,0-12.6,0-18.8C-101.5,103.4-101.5,97.1-101.5,90.8z"/>
	</g>
</g>
<g>
	<g>
		<path class="st2" d="M-82.5,373.2c0,6.3,0,12.6,0,18.8C6.1,392,78,320.4,78,232S6.1,72-82.5,72c0,6.3,0,12.6,0,18.8
			c6.3,0,12.6,0.4,18.8,1.3C6.6,101.5,59.1,161.3,59.1,232S6.6,362.5-63.7,371.9c0-6.3,0-12.7,0-19C-3.9,343.7,40.2,292.4,40.2,232
			S-3.9,120.4-63.7,111.1c-6.3-1-12.5-1.4-18.8-1.4c0,6.3,0,12.6,0,18.8c0,6.3,0,12.6,0,18.8c0,6.3,0,12.6,0,18.8
			c36.5,0,66.1,29.5,66.1,65.9s-29.6,65.9-66.1,65.9c0,6.3,0,12.6,0,18.8c6.4,0,12.6-0.7,18.8-2.2c38.7-8.8,66.1-43.1,66.1-82.6
			S-25,158-63.7,149.2c0-6.4,0-12.8,0-19.2c49.2,9.1,84.9,51.9,84.9,101.8s-35.7,92.7-84.9,101.8c-6.3,1.2-12.5,1.7-18.8,1.7
			c0,6.3,0,12.6,0,18.8C-82.5,360.6-82.5,366.9-82.5,373.2z"/>
		<path class="st3" d="M-82.5,373.2c0,6.3,0,12.6,0,18.8C6.1,392,78,320.4,78,232S6.1,72-82.5,72c0,6.3,0,12.6,0,18.8
			c6.3,0,12.6,0.4,18.8,1.3C6.6,101.5,59.1,161.3,59.1,232S6.6,362.5-63.7,371.9c0-6.3,0-12.7,0-19C-3.9,343.7,40.2,292.4,40.2,232
			S-3.9,120.4-63.7,111.1c-6.3-1-12.5-1.4-18.8-1.4c0,6.3,0,12.6,0,18.8c0,6.3,0,12.6,0,18.8c0,6.3,0,12.6,0,18.8
			c36.5,0,66.1,29.5,66.1,65.9s-29.6,65.9-66.1,65.9c0,6.3,0,12.6,0,18.8c6.4,0,12.6-0.7,18.8-2.2c38.7-8.8,66.1-43.1,66.1-82.6
			S-25,158-63.7,149.2c0-6.4,0-12.8,0-19.2c49.2,9.1,84.9,51.9,84.9,101.8s-35.7,92.7-84.9,101.8c-6.3,1.2-12.5,1.7-18.8,1.7
			c0,6.3,0,12.6,0,18.8C-82.5,360.6-82.5,366.9-82.5,373.2z"/>
	</g>
</g>
</svg>
