<?xml version="1.0" encoding="utf-8"?>
<!-- Generator: Adobe Illustrator 18.1.1, SVG Export Plug-In . SVG Version: 6.00 Build 0)  -->
<!DOCTYPE svg PUBLIC "-//W3C//DTD SVG 1.1//EN" "http://www.w3.org/Graphics/SVG/1.1/DTD/svg11.dtd">
<svg version="1.1" id="Layer_1" xmlns="http://www.w3.org/2000/svg" xmlns:xlink="http://www.w3.org/1999/xlink" x="0px" y="0px"
	 viewBox="0 0 100 100" enable-background="new 0 0 100 100" xml:space="preserve">
<g opacity="0.3">
	<path fill="#FFFFFF" d="M91.9288,0c2.2536,0,4.1654,0.7413,5.7277,2.2137C99.2188,3.6913,100,5.5594,100,7.813v83.5942
		c0,2.2561-0.7812,4.2553-2.3435,5.9898C96.0941,99.134,94.1823,100,91.9288,100H8.5942c-2.2587,0-4.2566-0.866-5.9898-2.603
		C0.8673,95.6625,0,93.6633,0,91.4071V7.813c0-2.2536,0.8223-4.1217,2.4746-5.5992C4.1217,0.7413,6.1607,0,8.5942,0H91.9288z
		 M18.7506,29.8181c1.3876,1.4775,3.2095,2.2137,5.4682,2.2137c2.2549,0,4.1217-0.7362,5.5992-2.2137
		c1.4724-1.4724,2.2137-3.2544,2.2137-5.3384c0-2.2536-0.6964-4.1217-2.084-5.5992c-1.3915-1.4724-3.2146-2.2137-5.4682-2.2137
		c-2.2587,0-4.1268,0.7413-5.5992,2.2137c-1.4775,1.4775-2.2137,3.3457-2.2137,5.5992
		C16.6667,26.5636,17.3579,28.3457,18.7506,29.8181z M30.9898,83.3333V38.8028H16.6667v44.5305H30.9898z M83.3333,83.3333V57.2901
		c0-6.419-1.5212-11.2833-4.556-14.5827c-3.0399-3.2943-6.992-4.9465-11.8486-4.9465c-5.2087,0-9.5513,2.4334-13.0229,7.2901
		v-6.2481H39.5827v44.5305h14.3232V58.0738c0-1.7345,0.1722-2.9525,0.5216-3.6463c1.3876-3.4716,3.8159-5.2087,7.2926-5.2087
		c4.8566,0,7.2901,3.2146,7.2901,9.6361v24.4784H83.3333z"/>
</g>
</svg>
