<?xml version="1.0" encoding="utf-8"?>
<!-- Generator: Adobe Illustrator 17.1.0, SVG Export Plug-In . SVG Version: 6.00 Build 0)  -->
<!DOCTYPE svg PUBLIC "-//W3C//DTD SVG 1.1//EN" "http://www.w3.org/Graphics/SVG/1.1/DTD/svg11.dtd">
<svg version="1.1" xmlns="http://www.w3.org/2000/svg" xmlns:xlink="http://www.w3.org/1999/xlink" x="0px" y="0px"
	 viewBox="0 0 100 66.8" enable-background="new 0 0 100 66.8" xml:space="preserve">
<g id="Layer_1">
	<g>
		<path fill="#FFFFFF" d="M18.5,38.5c0.1-0.7,0.1-1.1,0.2-1.6c0.3-1.6,0.6-3.3,1.1-4.9c0.4-1.3,1.1-2.4,1.4-3.7
			c0.4-1.6,1.6-0.9,2.5-1c0.5-0.1,1.2,0,1.6,0.2c0.5,0.4,1,1,1.2,1.6c0.5,1.8,0.9,3.7,1.3,5.5c0.4,1.8,0.7,3.6,1.2,5.4
			c0.4,1.7,0.9,3.4,1.4,5.1c0.1,0.5,0.3,0.9,0.4,1.5c-0.3-0.2-0.4-0.2-0.3-0.2c-0.6,0.2-0.9,0.4-1.3,0.5c-0.5,0.1-1,0.2-1.6,0.3
			c-0.7,0.2-0.8-0.4-0.9-0.8c-0.4-1.1-0.8-2.3-1.2-3.4c-0.5-1.5-0.9-2.9-1.3-4.4c-0.3-1-0.5-2.1-0.8-3.1c0-0.1-0.1-0.1-0.3-0.3
			c-0.1,1.1-0.1,2-0.2,3c-0.1,1.9-0.1,3.7-0.3,5.6c-0.2,1.9-0.2,1.7-1.9,1.9c-0.6,0.1-1.2,0.1-1.8,0.2c-1,0.1-1.3-0.6-1.7-1.3
			c-0.9-1.4-1.7-2.8-2.7-4.4c0.1,0.8,0.2,1.5,0.3,2.1c0.1,0.7,0.2,1.3,0.3,2c0.1,0.9-0.7,1-1.2,1.3c-0.5,0.2-1.1,0.3-1.6,0.4
			c-1.1,0.2-1.7-0.4-1.9-1.7c-0.2-1.8-0.5-3.5-0.5-5.3c-0.1-2,0-4,0.1-6c0-0.4,0.1-0.8,0-1.1c-0.2-1.2,0.7-1.1,1.3-1.3
			c0.7-0.2,1.4-0.2,2.1-0.2c1.5,0,1.6,1.3,2.1,2.2C16.5,34.7,17.4,36.5,18.5,38.5z"/>
		<path fill="#FFFFFF" d="M81.2,46.1c-0.2,2.9-0.1,6,1.1,9c-1.1,0-2.1,0-3.4,0c0,0-0.4-0.2-0.5-0.4c-0.4-1.8-0.7-3.7-1-5.5
			c-0.2-1.2-0.2-2.4-0.3-3.6c-0.6-0.4-1.4-0.8-1.1-1.7c0.1-0.3,0.5-0.5,0.8-0.8c0.1-0.1,0.4-0.2,0.4-0.3c0.4-2.2,0.6-4.4,1.1-6.5
			c0.5-2.1,1.3-4.1,3.1-5.5c0.6-0.5,1.2-0.9,1.8-1.3c0.9-0.6,1.8-0.4,2.7,0c0.9,0.4,1.8,0.7,2.7,1c1,0.5,1.3,1.5,1.5,2.4
			c0.5,1.8,0.3,3.7-0.3,5.4c-0.4,1-1,2.1-1.7,2.8c-1.4,1.4-2.8,2.7-4.4,3.9C83.1,45.5,82.2,45.7,81.2,46.1z M85.8,32
			c-0.5,0.6-1.1,1-1.5,1.5c-1.9,2.6-2.3,5.6-2.9,8.7C84,40.8,87.3,37.5,85.8,32z"/>
		<path fill="#FFFFFF" d="M34.6,39.7c-0.3,2.1-0.2,4.3,1.9,5.7c0.3,0.2,0.8,0.1,1.1,0c0.6-0.1,1.1-0.4,1.7-0.6
			c0.4-0.1,0.8-0.1,1.1,0c0.8,0.3,1.6,0.6,2.3,0.9c0,0.1,0,0.2,0,0.4c-0.8,0.3-1.6,0.7-2.4,0.8c-1.7,0.3-3.4,0.8-5.1,0.3
			c-1-0.3-2-0.9-3-1.5c-2-1.1-2.1-3-2.1-5c0-1-0.1-2.1,0-3.1c0.1-1,0.1-1.9,0.4-2.9c0.6-2.2,2-3.8,3.8-5.2c1.4-1,2.5-0.5,3.8-0.2
			c0.7,0.2,1.6,0.2,1.8,1.2c0.2,0.8,0.3,1.7,0.4,2.6c0.1,1.3,0.3,2.6,0.2,3.9c0,0.9-0.2,1.9-0.5,2.8C40.2,40,39.4,40,39,40
			c-1.3-0.1-2.5-0.3-3.8-0.4C35,39.5,34.8,39.6,34.6,39.7z M36.4,33.3c-0.1,0-0.2,0-0.4,0c-0.4,1.3-0.8,2.5-1.3,3.9
			c0.7,0.1,1.1,0.2,1.6,0.2C36.4,35.9,36.4,34.6,36.4,33.3z"/>
		<path fill="#FFFFFF" d="M51.2,40.1c-1.8,1.1-3.6,0.5-5.5,0.2c-0.5,1.7,0.3,2.9,1.2,4.1c0.7,0.9,2.2,1,3,0.7c0.8-0.3,1.5-0.3,2-1.2
			c0.1-0.1,0.6-0.1,0.9,0c0.6,0.2,1.3,0.6,1.2,1.4c0,0.2-0.4,0.5-0.6,0.6c-1.3,0.4-2.6,1.1-3.9,1c-1.9-0.1-4.1-0.1-5.5-1.6
			c-1.4-1.4-2.2-3.1-2.1-5.4c0.1-1.9,0.6-3.7,1.1-5.5c0.5-1.9,1.4-3.7,3.1-5c0.3-0.3,0.6-0.7,0.9-1c0.6-0.7,1.3-0.5,2-0.3
			c0.9,0.3,1.9,0.5,2.6,1.1c0.4,0.3,0.6,1.2,0.6,1.8c0,1.1-0.1,2.1-0.2,3.2c0,0.3-0.2,0.6-0.2,0.9c-0.2,1.1-0.3,2.3-0.4,3.4
			C51,39.1,51.1,39.6,51.2,40.1z M48.1,33c-0.3,0.2-0.4,0.3-0.4,0.4c-0.5,1.4-1,2.8-1.4,4.3c0,0.2,0.2,0.6,0.3,0.6
			c0.5-0.1,1.3,0.6,1.4-0.3C48,36.4,48,34.8,48.1,33z"/>
		<path fill="#FFFFFF" d="M60.1,39.5c0,2.6,0,5.2,0,7.9c-0.7,0.1-1.5,0.3-2.3,0.3c-0.2,0-0.5-0.4-0.5-0.6c-0.2-2.2-0.4-4.4-0.4-6.7
			c0-1.2-0.7-0.8-1.3-0.9c-0.6-0.1-1.2,0.1-1.8-0.1c-0.3-0.1-0.7-0.6-0.8-1c-0.1-0.7,0.3-1.3,1.1-1.3c0.7,0,1.4,0.1,2.1,0
			c0.1,0,0.4-0.3,0.4-0.4c-0.2-1.8-0.4-3.5-0.6-5.3c-0.2-2-0.4-4.1-0.4-6.1c0-1.1,0.1-2.2,0.4-3.3c0.2-0.7,1.2-0.9,2-0.5
			c0.5,0.3,1.1,0.6,1.6,0.9c1,0.6,0.5,1.6,0.5,2.4c0,1.9,0,3.8,0,5.8c0,1.5,0.2,3.1,0.3,4.6c0,0.5-0.2,1-0.5,1.9
			c0.5-0.2,0.8-0.3,0.8-0.4c0.2-1.3,0.5-1.4,1.6-0.6c0.8,0.6,1.4,1.4,2.1,2.1c0.1,0.1,0.1,0.3,0.2,0.6C63,39.1,61.5,39.3,60.1,39.5z
			"/>
		<path fill="#FFFFFF" d="M69.8,44.7c1.8-1.7,2.8-3.7,2.8-6.1c0-1-0.2-2-0.2-2.9c0-0.4,0.2-0.9,0.5-1.1c0.2-0.2,0.8-0.2,1.1-0.1
			c0.8,0.3,1.7,0.7,2.4,1.2c0.3,0.2,0.5,0.7,0.5,1.1c-0.1,1.6-0.1,3.2-1,4.6c-0.5,0.8-1.1,1.6-1.6,2.3c-0.6,0.8-1.1,1.6-1.8,2.2
			c-0.3,0.3-0.8,0.6-1.3,0.6c-0.9,0.2-1.9,0.3-2.9,0.2c-1.4,0-2-1.1-2.2-2.2c-0.5-2.1-0.8-4.3-1.1-6.5c-0.1-1-0.2-2-0.3-3
			c-0.1-0.8,0.7-1.4,1.6-1c0.8,0.3,1.7,0.6,2.3,1.2c0.4,0.4,0.4,1.3,0.5,2c0.1,1.4,0.2,2.7,0.2,4.1c0.1,0.9,0.1,1.8,0.2,2.7
			C69.7,44.2,69.8,44.4,69.8,44.7z"/>
	</g>
</g>
<g id="Layer_2">
	<path fill="#FFFFFF" d="M0,6c0-3.3,2.7-6,6-6h88c3.3,0,6,2.7,6,6v54.8c0,3.3-2.7,6-6,6H6c-3.3,0-6-2.7-6-6V6z M99,17.8H1v40h98
		V17.8z"/>
</g>
</svg>
