<?xml version="1.0" encoding="utf-8"?>
<!-- Generator: Adobe Illustrator 17.1.0, SVG Export Plug-In . SVG Version: 6.00 Build 0)  -->
<!DOCTYPE svg PUBLIC "-//W3C//DTD SVG 1.1//EN" "http://www.w3.org/Graphics/SVG/1.1/DTD/svg11.dtd">
<svg version="1.1" id="Constructions" xmlns="http://www.w3.org/2000/svg" xmlns:xlink="http://www.w3.org/1999/xlink" x="0px"
	 y="0px" viewBox="0 0 100 200" enable-background="new 0 0 100 200" xml:space="preserve">
<g>
	<path fill="#CCCCCC" d="M88.1,38c1.2,3.9,1.8,7.8,1.8,11.9c-0.7-1.2-1.5-2.3-2.3-3.4c-1.2-1.6-2.5-3.1-3.9-4.5
		c1.4-1.4,2.8-2.8,4.2-4.2C88,37.8,88.1,37.9,88.1,38z"/>
	<path fill="#CCCCCC" d="M90.9,73.6c0,3-0.4,5.9-1.1,9c-6.5,26.9-38.2,38.5-60.5,22.2c-1.4,1.4-2.8,2.8-4.3,4.3
		c18.9,14.4,45.7,11.5,61.1-6.5c-1.3,4.2-2.9,8.3-4.8,12.4c-0.3,0.6-0.5,1.1-0.8,1.6c-10.2,20.3-20.3,40.7-30.5,61
		c-10.2-20.3-20.3-40.7-30.5-61c-1.2-2.4-2.3-4.8-3.2-7.2c1.4-1.4,2.8-2.8,4.2-4.2c1.4-1.4,2.8-2.8,4.2-4.2c1.4-1.4,2.8-2.8,4.2-4.2
		c1.4,1.4,2.9,2.7,4.6,3.8c13,9,30.6,7.3,41.8-3.8C86.5,85.6,88.1,68,79.1,55c-1.4,1.4-2.9,2.9-4.3,4.3c6.7,10.6,5.1,24.4-3.8,33.3
		c-8.8,8.8-22.6,10.4-33.2,3.7c-1.7-1.1-3.3-2.3-4.7-3.7c1.4-1.4,2.8-2.8,4.2-4.2c8.2,8.1,21.4,8.1,29.5,0c8.1-8.2,8.1-21.4,0-29.5
		c1.4-1.4,2.8-2.8,4.2-4.2c1.4-1.4,2.8-2.8,4.2-4.2c1.4-1.4,2.8-2.8,4.2-4.2c1.4,1.4,2.7,2.9,3.9,4.5c3.3,4.5,5.4,9.2,6.6,14.7
		C90.6,68.3,90.9,71,90.9,73.6z"/>
	<path fill="#E6E6E6" d="M16.3,101c-0.7,0.7-1.5,1.5-2.2,2.2c-0.7-2.3-1.3-4.5-1.8-6.8c0,0,0.1,0.1,0.1,0.1
		C13.5,98.1,14.9,99.6,16.3,101z"/>
	<path fill="#E6E6E6" d="M83.7,33.5c-1.4,1.4-2.8,2.8-4.2,4.2c-1.4,1.4-2.8,2.8-4.2,4.2c-1.4,1.4-2.8,2.8-4.2,4.2
		c-1.4-1.4-2.9-2.7-4.6-3.8c-13-9-30.6-7.3-41.8,3.8c-11.2,11.2-12.8,28.7-3.8,41.8c1.4-1.4,2.9-2.9,4.3-4.3
		c-6.7-10.6-5.1-24.4,3.8-33.2c8.8-8.8,22.6-10.4,33.2-3.8c1.7,1.1,3.3,2.3,4.7,3.8c-1.4,1.4-2.8,2.8-4.2,4.2
		c-8.2-8.2-21.4-8.2-29.5,0C25,62.8,25,76,33.1,84.1c-1.4,1.4-2.8,2.8-4.2,4.2c-1.4,1.4-2.8,2.8-4.2,4.2c-1.4,1.4-2.8,2.8-4.2,4.2
		c-1.4-1.4-2.7-2.9-3.9-4.5c-3.3-4.5-5.4-9.2-6.6-14.7c-0.6-2.8-0.9-5.4-0.9-8.1c0-2.7,0.3-5.4,0.9-8.1
		c5.9-27.4,38.1-39.7,60.8-23.2c1.4-1.4,2.8-2.8,4.3-4.3C54.3,18,24.4,23.2,10.3,45.2c0.6-5.1,2.1-9.7,4.5-14.2
		C34.9,13.7,65,14.8,83.7,33.5z"/>
	<path fill="#E6E6E6" d="M89.4,121.1C76.3,147.4,63.2,173.7,50,200c-13.2-26.3-26.3-52.6-39.4-78.9C3.4,106.7,0,92.5,0,76.4
		C0,67.6,0,58.8,0,50C0,22.4,22.4,0,50,0s50,22.4,50,50c0,8.8,0,17.6,0,26.4C100,92.5,96.7,106.7,89.4,121.1z M95,50
		C95,25.1,74.9,5,50,5C27,5,8,22.3,5.4,44.5C5.1,46.3,5,48.2,5,50c0,6.5,0,12.9,0,19.4c0,2.3,0,4.7,0,7c0,15.3,3.2,28.8,10,42.5
		c11.6,23.3,23.3,46.6,35,69.9c1.5-3,3-6,4.5-8.9c10.2-20.3,20.3-40.7,30.5-61c6.9-13.7,10-27.2,10-42.5c0-0.9,0-1.8,0-2.8
		C95,65.8,95,57.9,95,50z"/>
</g>
</svg>
