<?xml version="1.0" encoding="utf-8"?>
<!-- Generator: Adobe Illustrator 17.1.0, SVG Export Plug-In . SVG Version: 6.00 Build 0)  -->
<!DOCTYPE svg PUBLIC "-//W3C//DTD SVG 1.1//EN" "http://www.w3.org/Graphics/SVG/1.1/DTD/svg11.dtd">
<svg version="1.1" id="Constructions" xmlns="http://www.w3.org/2000/svg" xmlns:xlink="http://www.w3.org/1999/xlink" x="0px"
	 y="0px" viewBox="0 0 100 200" enable-background="new 0 0 100 200" xml:space="preserve">
<path fill="#E6E6E6" d="M-350,200c-11.4-22.8-22.8-45.6-34.2-68.3C-395,110-400,88.8-400,64.6c0-4.9,0-9.7,0-14.6
	c0-27.6,22.4-50,50-50s50,22.4,50,50c0,4.9,0,9.7,0,14.6c0,24.2-5,45.4-15.8,67.1C-327.2,154.4-338.6,177.2-350,200z M-316.7,107.3
	c4.5-14,6.7-27.9,6.7-42.7c0-4.9,0-9.7,0-14.6c0-22.1-17.9-40-40-40c-22.1,0-40,17.9-40,40c0,4.9,0,9.7,0,14.6
	c0,14.7,2.2,28.6,6.7,42.7C-372.9,139.7-327.1,139.7-316.7,107.3z"/>
<path fill="#E6E6E6" d="M-150,200c-11.4-22.8-22.8-45.6-34.2-68.3C-195,110-200,88.8-200,64.6c0-21.5,0-43.1,0-64.6
	c33.3,0,66.7,0,100,0c0,21.5,0,43.1,0,64.6c0,24.2-5,45.4-15.8,67.1C-127.2,154.4-138.6,177.2-150,200z M-116.7,107.3
	c4.5-14,6.7-27.9,6.7-42.7c0-18.2,0-36.4,0-54.6c-26.7,0-53.3,0-80,0c0,18.2,0,36.4,0,54.6c0,14.7,2.2,28.6,6.7,42.7
	C-172.9,139.7-127.1,139.7-116.7,107.3z"/>
<path fill="#E6E6E6" d="M100,76.4c0,16.1-3.3,30.3-10.6,44.7C76.3,147.4,63.1,173.7,50,200c-13.1-26.3-26.3-52.6-39.4-78.9
	C3.3,106.7,0,92.5,0,76.4c0-1.9,0-3.8,0-5.7c0-13.3,5.3-26,14.6-35.4C26.4,23.6,38.2,11.8,50,0c11.8,11.8,23.6,23.6,35.4,35.4
	c9.4,9.4,14.6,22.1,14.6,35.4C100,72.6,100,74.5,100,76.4z M81.8,113.9c5.6-12.2,8.2-24.1,8.2-37.5c0-1.9,0-3.8,0-5.7
	c0-10.6-4.2-20.8-11.7-28.3C68.9,33,59.4,23.6,50,14.1C40.6,23.6,31.1,33,21.7,42.4C14.2,49.9,10,60.1,10,70.7c0,1.9,0,3.8,0,5.7
	c0,13.4,2.6,25.3,8.2,37.5C30.7,141.1,69.3,141.1,81.8,113.9z"/>
<path fill="#E6E6E6" d="M210.5,119.6c1.6,4.1,3.4,8.1,5.4,12.1c11.4,22.8,22.8,45.6,34.2,68.3c11.4-22.8,22.8-45.6,34.2-68.3
	c2-3.9,3.8-8,5.4-12.1c-14.1,6.4-23,12-39.5,12C233.5,131.6,224.5,126,210.5,119.6z"/>
<path fill="#E6E6E6" d="M252.8,83.3c0,1.9,0,3.7,0,5.6c0,1.9,0,3.7,0,5.6c26.1,0,47.2-21.1,47.2-47.2C300,21.1,278.9,0,252.8,0
	c0,1.9,0,3.7,0,5.6c1.9,0,3.7,0.1,5.6,0.4c20.7,2.8,36.1,20.4,36.1,41.3S279,85.7,258.3,88.5c0-1.9,0-3.7,0-5.6
	c17.6-2.7,30.6-17.9,30.6-35.7c0-17.8-13-32.9-30.6-35.7c-1.8-0.3-3.7-0.4-5.6-0.4c0,1.9,0,3.7,0,5.6c0,1.9,0,3.7,0,5.6
	c0,1.9,0,3.7,0,5.6c10.7,0,19.4,8.7,19.4,19.4c0,10.7-8.7,19.4-19.4,19.4c0,1.9,0,3.7,0,5.6c1.9,0,3.7-0.2,5.6-0.6
	c11.4-2.6,19.4-12.7,19.4-24.4c0-11.7-8.1-21.8-19.4-24.4c0-1.9,0-3.8,0-5.7c14.5,2.7,25,15.3,25,30c0,14.7-10.5,27.4-25,30
	c-1.8,0.3-3.7,0.5-5.6,0.5C252.8,79.6,252.8,81.5,252.8,83.3z"/>
<path fill="#E6E6E6" d="M247.2,11.1c0-1.9,0-3.7,0-5.6s0-3.7,0-5.6C221.1,0,200,21.1,200,47.2c0,26.1,21.1,47.2,47.2,47.2
	c0-1.9,0-3.7,0-5.6c-1.9,0-3.7-0.1-5.6-0.4c-20.7-2.8-36.1-20.4-36.1-41.3S221,8.7,241.7,5.9c0,1.9,0,3.7,0,5.6
	c-17.6,2.7-30.6,17.9-30.6,35.7c0,17.8,13,32.9,30.6,35.7c1.8,0.3,3.7,0.4,5.6,0.4c0-1.9,0-3.7,0-5.6c0-1.9,0-3.7,0-5.6
	c0-1.9,0-3.7,0-5.6c-10.7,0-19.4-8.7-19.4-19.4c0-10.7,8.7-19.4,19.4-19.4c0-1.9,0-3.7,0-5.6c-1.9,0-3.7,0.2-5.6,0.6
	c-11.4,2.6-19.4,12.7-19.4,24.4c0,11.7,8.1,21.8,19.4,24.4c0,1.9,0,3.8,0,5.7c-14.5-2.7-25-15.3-25-30c0-14.7,10.5-27.4,25-30
	c1.8-0.3,3.7-0.5,5.6-0.5C247.2,14.8,247.2,13,247.2,11.1z"/>
</svg>
