<?xml version="1.0" encoding="utf-8"?>
<!-- Generator: Adobe Illustrator 17.1.0, SVG Export Plug-In . SVG Version: 6.00 Build 0)  -->
<!DOCTYPE svg PUBLIC "-//W3C//DTD SVG 1.1//EN" "http://www.w3.org/Graphics/SVG/1.1/DTD/svg11.dtd">
<svg version="1.1" id="Constructions" xmlns="http://www.w3.org/2000/svg" xmlns:xlink="http://www.w3.org/1999/xlink" x="0px"
	 y="0px" viewBox="0 0 100 200" enable-background="new 0 0 100 200" xml:space="preserve">
<path fill="#CCCCCC" d="M53.9,169.8c8.9-17.7,17.7-35.5,26.6-53.2c4.4-8.9,7.3-17.9,8.6-27.8c-20-25.2-58.2-25.2-78.3,0
	c1.4,9.8,4.2,18.9,8.6,27.8c8.9,17.7,17.7,35.5,26.6,53.2c1.3,2.6,2.6,5.2,3.9,7.8C51.3,175,52.6,172.4,53.9,169.8z"/>
<circle fill="#CCCCCC" cx="50" cy="40" r="20"/>
<path fill="#E6E6E6" d="M50,200c-13.1-26.3-26.3-52.6-39.4-78.9C3.3,106.7,0,92.5,0,76.4C0,67.6,0,58.8,0,50C0,22.4,22.4,0,50,0
	c27.6,0,50,22.4,50,50c0,8.8,0,17.6,0,26.4c0,16.1-3.3,30.3-10.6,44.7C76.3,147.4,63.1,173.7,50,200z M85,118.9
	c6.9-13.7,10-27.2,10-42.5c0-8.8,0-17.6,0-26.4C95,25.1,74.9,5,50,5C25.1,5,5,25.1,5,50c0,8.8,0,17.6,0,26.4
	c0,15.3,3.2,28.8,10,42.5c11.7,23.3,23.3,46.6,35,69.9C61.7,165.5,73.3,142.2,85,118.9z"/>
</svg>
