<?xml version="1.0" encoding="utf-8"?>
<!-- Generator: Adobe Illustrator 17.1.0, SVG Export Plug-In . SVG Version: 6.00 Build 0)  -->
<!DOCTYPE svg PUBLIC "-//W3C//DTD SVG 1.1//EN" "http://www.w3.org/Graphics/SVG/1.1/DTD/svg11.dtd">
<svg version="1.1" id="Constructions" xmlns="http://www.w3.org/2000/svg" xmlns:xlink="http://www.w3.org/1999/xlink" x="0px"
	 y="0px" viewBox="0 0 100 200" enable-background="new 0 0 100 200" xml:space="preserve">
<g>
	<path fill="#CCCCCC" d="M90,50c0,8.8,0,17.6,0,26.4c0,14.5-3,27.3-9.5,40.2c-0.2,0.3-0.3,0.7-0.5,1c0-1.9,0-3.8,0-5.7
		c-3.3-2-6.7-4-10-6c0,10.6,0,21.1,0,31.7c-3.3,6.7-6.7,13.3-10,20c-3.3,6.7-6.7,13.3-10,20c-0.7-1.5-1.5-2.9-2.2-4.4
		c0.7-0.5,1.5-0.9,2.2-1.4c0-9.8,0-19.6,0-29.5c-3.3,2.1-6.7,4.2-10,6.2c0,3,0,6,0,9c-3.3-6.7-6.7-13.3-10-20c0-6.1,0-12.1,0-18.1
		c-2.3,1.4-4.6,2.9-6.9,4.3c-0.8-1.5-1.5-3-2.2-4.5c0,0,0.1-0.1,0.1-0.1c3-1.9,6-3.7,9-5.6c0-9.8,0-19.7,0-29.5
		c-3.3,2.1-6.7,4.2-10,6.2c0,9.1,0,18.2,0,27.3c-0.2-0.3-0.3-0.7-0.5-1C13,103.7,10,90.9,10,76.4c0-5,0-10.1,0-15.1
		C26.7,50.8,43.3,40.4,60,30c10,6,20,12,30,18C90,48.7,90,49.3,90,50z M80,106.1V77l-10-6v29.2L80,106.1z M80,71.2V47.8l-10-6v23.3
		L80,71.2z M50,136.5V107l-10,6.2v29.5L50,136.5z M50,101.1V71.6l-10,6.2v29.5L50,101.1z M50,65.7V42.2l-10,6.2V72L50,65.7z
		 M30,78.2V54.7l-10,6.2v23.6L30,78.2z"/>
</g>
<path fill="#E6E6E6" d="M50,188.8c-11.7-23.3-23.3-46.6-35-69.9C8.2,105.2,5,91.7,5,76.4C5,67.6,5,58.8,5,50C5,25.1,25.1,5,50,5
	s45,20.1,45,45c0,8.8,0,17.6,0,26.4c0,15.3-3.2,28.8-10,42.5C73.3,142.2,61.7,165.5,50,188.8z M89.4,121.1
	c7.2-14.4,10.6-28.6,10.6-44.7c0-8.8,0-17.6,0-26.4c0-27.6-22.4-50-50-50S0,22.4,0,50c0,8.8,0,17.6,0,26.4
	c0,16.1,3.3,30.3,10.6,44.7C23.7,147.4,36.9,173.7,50,200C63.1,173.7,76.3,147.4,89.4,121.1z"/>
</svg>
