<?xml version="1.0" encoding="utf-8"?>
<!-- Generator: Adobe Illustrator 17.1.0, SVG Export Plug-In . SVG Version: 6.00 Build 0)  -->
<!DOCTYPE svg PUBLIC "-//W3C//DTD SVG 1.1//EN" "http://www.w3.org/Graphics/SVG/1.1/DTD/svg11.dtd">
<svg version="1.1" id="Constructions" xmlns="http://www.w3.org/2000/svg" xmlns:xlink="http://www.w3.org/1999/xlink" x="0px"
	 y="0px" viewBox="0 0 100 200" enable-background="new 0 0 100 200" xml:space="preserve">
<g>
	<rect x="25.4" y="75.4" fill="#CCCCCC" width="12.3" height="12.3"/>
	<rect x="43.9" y="75.4" fill="#CCCCCC" width="12.3" height="12.3"/>
	<rect x="62.3" y="75.4" fill="#CCCCCC" width="12.3" height="12.3"/>
	<rect x="62.3" y="57" fill="#CCCCCC" width="12.3" height="12.3"/>
	<rect x="43.9" y="57" fill="#CCCCCC" width="12.3" height="12.3"/>
	<rect x="25.4" y="57" fill="#CCCCCC" width="12.3" height="12.3"/>
	<path fill="#CCCCCC" d="M80.7,50.9H19.3v43h61.4V50.9z M68.4,46c2,0,3.1-0.7,3.9-2.5c0.7-1.6,0.4-3.2,0.4-4.9c4.7,0,9.4,0,14.1,0
		c0,20.5,0,40.9,0,61.4c-1.6,5.8-3.7,11.3-6.3,16.6c-10.2,20.3-20.3,40.7-30.5,61c-10.2-20.3-20.3-40.7-30.5-61
		c-2.7-5.4-4.8-10.9-6.3-16.6c0-20.5,0-40.9,0-61.4c4.7,0,9.4,0,14.1,0c0,1.6-0.4,3.2,0.4,4.9c0.8,1.8,1.9,2.5,3.9,2.5
		s3.1-0.7,3.9-2.5c0.7-1.6,0.4-3.2,0.4-4.9c9.4,0,18.8,0,28.3,0c0,1.6-0.4,3.2,0.4,4.9C65.3,45.3,66.4,46,68.4,46z"/>
	<path fill="#CCCCCC" d="M71.5,32.2c0.2,3.1,0,6.3,0,9.4c0,4.1-5.8,4.3-6.1,0.2c-0.2-3.2,0-6.3,0-9.4C65.4,28.3,71.2,28.2,71.5,32.2
		z"/>
	<path fill="#CCCCCC" d="M34.6,32.2c0.2,3.1,0,6.3,0,9.4c0,4.1-5.8,4.3-6.1,0.2c-0.2-3.2,0-6.3,0-9.4C28.5,28.3,34.4,28.2,34.6,32.2
		z"/>
	<path fill="#E6E6E6" d="M95,50C95,25.1,74.8,5,50,5C25.2,5,5,25.1,5,50c0,8.8,0,17.6,0,26.4c0,15.3,3.2,28.8,10,42.5
		c11.7,23.3,23.3,46.6,35,69.9c11.6-23.3,23.3-46.6,35-69.9c6.8-13.7,10-27.2,10-42.5C95,67.6,95,58.8,95,50z M89.4,121.1
		C76.3,147.4,63.1,173.7,50,200c-13.2-26.3-26.3-52.6-39.4-78.9C3.3,106.7,0,92.5,0,76.4C0,67.6,0,58.8,0,50C0,22.4,22.4,0,50,0
		c27.6,0,50,22.4,50,50c0,8.8,0,17.6,0,26.4C100,92.5,96.7,106.7,89.4,121.1z"/>
</g>
</svg>
